<!-- by TradingView --><svg width="56" height="56" viewBox="0 0 56 56" xmlns="http://www.w3.org/2000/svg"><path fill="#C3A634" d="M0 0h56v56H0z"/><path d="m22.46 8.05-.51-.36a.19.19 0 0 0-.3.18l.08.5-.05 2a.2.2 0 0 1-.06.14l-.05.05a.33.33 0 0 0-.09.16c-.15.62-.3 1.26-.43 1.9a.93.93 0 0 1-.24.44l-.43.46c-.54.58-.47.68.23.3.53-.3 1.06-.65 1.62-1.07.18-.14.5-.18.93-.13.08.01.15.04.2.1.18.19.37.33.58.45.07.03.11.1.12.18.05.34 0 .7-.24.96a2.72 2.72 0 0 0-.68 1.82c0 .1-.04.17-.12.22-.51.3-.54.87-.96 1.27-.2.18-.4.34-.62.48l-.04-1.34a.31.31 0 0 0-.33-.3c-.16 0-.32.1-.46.26-.35.43-.8.76-1.34.97-.42.1-.7.43-.87 1-.08.2-.2.4-.37.58.05-.91-.36-1.32-1.23-1.23-.19.02-.49.2-.9.55a.32.32 0 0 0-.1.18c-.12.56-.43.96-.96 1.2-.17.04-.25-.04-.24-.21 0-.03 0-.05.02-.08.66-1.25.67-2.74 1.82-3.74a3.6 3.6 0 0 1 1.05-.68c1.99-.7 3.03-2.01 3.13-3.96l.06-1.96a7.7 7.7 0 0 1 .33-2.09.36.36 0 0 1 .44-.24l.55.15c.07.02.12.06.15.13l.3.76Z" fill="#E1B051"/><path d="m22.46 8.05.37.43c.56.77 1.02 1.6 1.4 2.48.12.29.41.6.89.95.27.21 0 .32-.83.3a6.26 6.26 0 0 1-1.46-1.75 1.7 1.7 0 0 1-.24-.75 1.71 1.71 0 0 0-.54-1.13.13.13 0 0 0-.22.08l-.01.24c-.07-.14-.1-.32-.1-.52l-.06-.51a.19.19 0 0 1 .29-.18l.5.36Z" fill="#B87C29"/><path d="M38.21 8.46c-.21.02-.32.16-.3.4 0 .38.2.64.2 1 0 .23-.01.45-.03.68-.04.53.42 1.02.56 1.52.2.68.24 1.29.14 1.81-.1.51-.17 1.04-.22 1.6a.91.91 0 0 1-.33.65.16.16 0 0 0-.04.2l.06.06c.25.15.42.36.5.62a.12.12 0 0 0 .23.01c.11-.22.16-.44.15-.66.1.1.17.2.18.26.2.55.44 1.09.7 1.6.28.57.45 1.05.53 1.45.17.86.28 1.72.33 2.57.02.41.14 1.03.3 1.4.43 1.08.73 2.17.9 3.29v2.24c-.01.07.01.14.06.2.25.33.31.73.2 1.2-.05.22 0 .4.15.53.07.06.1.13.1.22-.02.41-.16.76-.41 1.05-.2.21-.33.45-.42.7-.24.73-.73 1.41-1.5 1.6a.48.48 0 0 0-.29.21c-.31.52-.4.98-1.04 1.22a.18.18 0 0 1-.19-.03c-.18-.13-.38-.1-.6.07.13-.5.3-1 .52-1.47.11-.24.26-.46.45-.66.34-.38.44-.86.3-1.46a.3.3 0 0 1 .05-.23c.34-.49.53-1 .92-1.48.35-.44.52-.94.5-1.52a.09.09 0 0 0-.05-.08h-.06a.1.1 0 0 0-.04.03c-.6.65-1.41 1.04-1.9 1.8-.63 1-1.39 1.84-2.28 2.55-.15.12-.21.28-.2.48.06.47 0 .99.63 1 .1.01.14.06.14.15 0 .2-.06.38-.17.53a36.43 36.43 0 0 0-.87 1.3.13.13 0 0 0 .12.13l.16.01c-.18.1-.34.23-.56.25-.6.06-.99-.03-1.17-.25.34-.43.65-.77.92-1.03.3-.26.4-.6.36-.98a.16.16 0 0 0-.17-.15c-.15.02-.28.06-.42.12a.14.14 0 0 1-.2-.16c.05-.2.06-.42.04-.63-.01-.06 0-.11.03-.16l.55-.93a.07.07 0 0 0-.02-.1.07.07 0 0 0-.09 0c-.37.37-.77.6-1.2.68-.09.02-.14-.02-.17-.1l-.02-.08.01-.01c.26-.1.47-.23.62-.4a.87.87 0 0 0 .2-.57c0-.61.88-1.37 1.29-1.78a.53.53 0 0 0 .15-.47 13.2 13.2 0 0 1-.17-1.1c-.01-.13.04-.22.15-.27a.16.16 0 0 1 .1-.02c.03 0 .06.02.09.04l.08.08c.07.06.13.05.17-.03l.36-.6a.19.19 0 0 0 .02-.12c-.1-.7.1-1.28.58-1.71.16-.2.25-.42.26-.68a.18.18 0 0 0-.1-.18l-.3-.2a.2.2 0 0 1-.1-.2c.04-.3.15-.56.33-.8.04-.05.04-.1-.01-.14-.23-.18-.4-.63-.2-.9.05-.08.09-.17.1-.26a.16.16 0 0 0-.04-.15c-.3-.28-.36-.58-.17-.91.03-.07.03-.13-.02-.18l-.49-.51a.18.18 0 0 1-.05-.15.54.54 0 0 0-.13-.4.1.1 0 0 0-.08-.04.1.1 0 0 0-.08.06c-.07.18-.16.34-.27.5l-.06.02c-.05 0-.07-.03-.06-.08l.1-.5c.02-.08-.01-.13-.1-.13l-.74-.03a.1.1 0 0 0-.09.15l.27.4a.1.1 0 0 1 .01.09.1.1 0 0 1-.07.06.39.39 0 0 1-.26-.04l-.66-.33a.45.45 0 0 0-.22-.04l-.5.03c-.11 0-.18-.04-.2-.14l-.03-.08a.16.16 0 0 0-.18-.12 6.2 6.2 0 0 1-2 .07.28.28 0 0 0-.28.15 6.3 6.3 0 0 1-1.67 2.04c-.22.17-.47.25-.72.34a.46.46 0 0 0-.2.13c-.41.46-.78.35-1.34.34-.6-.01-1.18-.04-1.76-.07a.9.9 0 0 0-.4-.16.18.18 0 0 1-.15-.16 3.81 3.81 0 0 0-.52-1.61.18.18 0 0 0-.18-.1.19.19 0 0 0-.16.12l-.35.92a.22.22 0 0 1-.36.08.22.22 0 0 1-.06-.13l-.09-.58a1.3 1.3 0 0 0-.07-.27l-.2-.55a.13.13 0 0 1 .06-.16.13.13 0 0 1 .06-.01h.13c.07 0 .11-.03.14-.1.12-.38.29-.75.48-1.1a.79.79 0 0 0-.01-.8c-.04-.07-.1-.08-.16-.02-.47.4-.86.83-1.18 1.24-.1.15-.17.13-.2-.05a.2.2 0 0 0-.05-.13c-.05-.04-.1-.05-.17-.02-.61.3-1.08.65-1.4 1.07a.92.92 0 0 1-.56.37c-.08.01-.1-.02-.09-.1a8.07 8.07 0 0 1 .78-1.52c.1-.14.06-.28-.1-.42-.05-.06-.1-.06-.16 0l-.75.7a.3.3 0 0 1 .07-.2c.3-.28.53-.67.7-1.16.15.01.24-.04.27-.15.07-.3.2-.51.35-.75.22-.14.43-.3.62-.48.42-.4.45-.97.96-1.27a.24.24 0 0 0 .12-.22c0-.7.23-1.3.68-1.82.23-.27.29-.62.24-.96a.23.23 0 0 0-.12-.18c-.21-.12-.4-.26-.57-.45a.33.33 0 0 0-.2-.1c-.45-.05-.76 0-.94.13-.56.42-1.1.78-1.62 1.07-.7.38-.77.28-.23-.3l.43-.46c.12-.13.2-.28.24-.44l.43-1.9a.33.33 0 0 1 .09-.16l.05-.05a.2.2 0 0 0 .06-.14l.05-2c-.01.21.02.39.09.53.08.2.2.35.34.43a.24.24 0 0 1 .12.22.23.23 0 0 1-.15.2c-.44.18-.4.73-.13 1.03.24.28.4.6.45.95.01.12.08.2.19.27.56.3 1.1.37 1.65.22.82 0 1.1-.1.83-.3 1.1.07 2.15.22 3.15.45.3.06.61.1.92.1.58 0 1.11.16 1.7.21.58.05 1.16.2 1.7-.08.3-.16.55-.38.75-.65.4 0 .71-.1.94-.3.2-.17.36-.37.5-.59.04-.05.1-.1.15-.12.48-.22.82-.58 1.03-1.09.13-.33.06-.7.07-1.05a.3.3 0 0 1 .08-.2c.47-.53 1.6-.41 2.1-.14Z" fill="#C89539"/><path d="M38.21 8.46c.4.22.7.62.87 1.2a9.6 9.6 0 0 1 .42 4.38l-.37 2.31c.01.22-.04.44-.15.66a.12.12 0 0 1-.22-.01 1.1 1.1 0 0 0-.51-.62.16.16 0 0 1-.07-.2.16.16 0 0 1 .05-.06c.2-.16.3-.38.33-.65.05-.56.12-1.09.22-1.6.1-.52.06-1.13-.14-1.8-.14-.5-.6-1-.56-1.53l.03-.67c0-.37-.2-.63-.2-1.01-.02-.24.09-.37.3-.4ZM24.3 12.22a2.2 2.2 0 0 1-1.66-.22.35.35 0 0 1-.2-.27c-.05-.35-.2-.67-.44-.95-.26-.3-.3-.85.13-1.03a.23.23 0 0 0 .15-.2.24.24 0 0 0-.12-.22.79.79 0 0 1-.34-.43l.01-.24a.13.13 0 0 1 .22-.08c.33.32.51.7.54 1.13.02.26.1.51.24.75.39.7.88 1.28 1.46 1.76Z" fill="#85511C"/><path d="M34.06 12.81a.24.24 0 0 1 .13-.05c.25-.03.34.07.28.3a.27.27 0 0 1-.1.14c-.57.42-.87 1-.9 1.73-.04.55.35.83.34 1.36l-.03.09c-.04.04-.08.06-.13.06-.16-.01-.26-.1-.3-.24-.08-.3-.2-.58-.38-.83a.27.27 0 0 0-.14-.1.58.58 0 0 1-.4-.38.45.45 0 0 0-.12-.19l-.58-.5a.46.46 0 0 1-.18-.4.14.14 0 0 1 .14-.12c.03 0 .05 0 .07.02.27.17.55.24.84.22.07 0 .13-.03.19-.08l1.27-1.03Z" fill="#B87C29"/><path d="M37.43 14.92a5.41 5.41 0 0 1-1.97 2.2.16.16 0 0 1-.21-.06l-.13-.22a.26.26 0 0 0-.26-.12l-.68.09a.15.15 0 0 1-.12-.25c.39-.37.84-.81 1-1.33.1-.31.29-.57.56-.77a.11.11 0 0 0-.05-.2l-.38-.02a.19.19 0 0 1-.17-.17c0-.11.04-.2.14-.28.16-.13.31-.26.44-.41a.5.5 0 0 1 .51-.17c.4.07.82.1 1.26.06a.32.32 0 0 1 .32.22c.07.22.09.45.05.66-.04.22-.15.48-.31.77Z" fill="#85511C"/><path d="M23.62 16.99c.22-.68.54-1.43.97-2.26.04-.08.1-.1.18-.06.13.05.18.15.17.29a3.56 3.56 0 0 1-.6 1.66c-.35.54-.33 1.1-.49 1.7a.15.15 0 0 1-.13.1c-.09.01-.15-.01-.18-.07a.86.86 0 0 1-.1-.49c.04-.29.1-.58.18-.87Z" fill="#B87C29"/><path d="m27.3 19.44-.96.63c-.29.12-.53.13-.75.02-.38-.2-.41-.71-.48-1.09a.84.84 0 0 1 .03-.44c.08-.24.14-.49.17-.74.07-.63.65-1.07 1.2-1.36.51-.25 1-.17 1.47.26.65.6.38 1.46.21 2.2a.17.17 0 0 1-.14.13c-.31.06-.56.19-.74.39Z" fill="#E1B051"/><path d="M21.44 18.1a2.4 2.4 0 0 0-.35.75c-.03.11-.12.16-.27.15-.2-.85-.72-1.28-1.55-1.3.54-.22.99-.55 1.34-.98.14-.17.3-.25.46-.26a.31.31 0 0 1 .33.3l.04 1.34ZM37.86 18.91c.4-.03.65-.28.74-.76a.09.09 0 0 1 .05-.06.09.09 0 0 1 .07 0l.08.03a.24.24 0 0 1 .14.25c-.12.86-.17 1.7-.16 2.5 0 .19-.07.22-.22.1-.13-.13-.23-.4-.28-.81a.28.28 0 0 0-.1-.2c-.35-.27-.72-.38-.8-.88-.13-.78.03-1.47.49-2.06a.1.1 0 0 1 .06-.04c.02 0 .04 0 .06.02v.04l-.2.58c-.02.09 0 .16.07.22.16.12.22.27.18.44a.31.31 0 0 1-.13.2.61.61 0 0 0-.2.21.15.15 0 0 0 .07.2c.02.02.05.02.08.02Z" fill="#B87C29"/><path d="M19.27 17.7c.83.02 1.34.45 1.55 1.3-.17.49-.4.88-.7 1.17l-.81.22c-.6-.6-.68-1.26-.27-2 .02-.03.01-.05-.02-.07-.02-.02-.05-.01-.07.01-.11.18-.26.32-.42.45-.1-.01-.14-.04-.13-.1.16-.56.45-.9.87-.99Z" fill="#0B0802"/><path d="M18.03 19.27c0 .06-.01.1-.05.11-.17.17-.3.28-.39.3-.2.08-.3.22-.3.43-.01.32-.05.63-.12.92-.14.55.05.88.55 1a.5.5 0 0 0 .56-.2c.25-.34.53-.66.84-.97l.17-.04c.2 0 .2.12.01.38a1.4 1.4 0 0 1-.24.26l-.72.58c-.15.12-.28.26-.38.42l-.3.48-.86.31.02-.07c0-.04.03-.06.08-.05.03 0 .06-.02.09-.07a.06.06 0 0 0 .01-.05c-.2-.7-.24-1.44-.15-2.2l.19-.7c.07-.26.11-.54.11-.82 0-.24-.06-.46-.19-.66a.2.2 0 0 0-.19-.1c-.33.02-.55.16-.65.43-.08.25-.21.49-.38.7-.16.2-.3.45-.41.75-.2.51-.43.97-.7 1.39a3.2 3.2 0 0 1-.3.31c-.1.11-.15.26-.14.44 0 .07-.03.13-.07.19a.6.6 0 0 0-.12.4c0 .08.03.1.1.06.05-.02.1-.02.16 0a5.08 5.08 0 0 0 1.21.54.17.17 0 0 1 .06.13l-.01.07a3.55 3.55 0 0 0-.3 1.79c.07.7.23 1.28.47 1.74.04.08.1.13.2.17.07.02.11 0 .12-.07l.04-.22.52.84c-.51.82-.08 1.54.25 2.29a.35.35 0 0 1-.04.34c-.3.42-.69.74-1.16.97-.36.18-.7-.01-.94-.28l-.14-.1a.2.2 0 0 0-.2 0c-.2.1-.33.06-.4-.15-.26-.82-.5-1.69-.72-2.6a8.4 8.4 0 0 1 .33-4.9c.15-.43.27-.87.35-1.33.1-.51.25-1.05.47-1.61.04-.1.1-.2.16-.29a.33.33 0 0 0 .07-.18c0-.15.09-.28.24-.38.53-.24.84-.64.96-1.2a.32.32 0 0 1 .1-.18c.41-.35.71-.53.9-.55.87-.1 1.28.32 1.23 1.23Z" fill="#EFE2AD"/><path d="M19.3 20.39c-.9-.12-1.16-.65-.78-1.61.17-.13.32-.27.43-.45.02-.02.04-.03.07-.01.03.02.04.04.02.07-.41.74-.32 1.4.27 2ZM19.41 18.47a.1.1 0 0 1 .1.03.1.1 0 0 1 .02.09.3.3 0 0 1-.18.21c-.12.06-.17.02-.14-.1.03-.13.1-.2.2-.23Z" fill="#FCF9F5"/><path d="M16.8 23.25a.41.41 0 0 0-.17.23 1 1 0 0 0-.3.5c.02-.28-.16-.27-.51.02-.46.36-.61 1.18-.6 1.73a3.54 3.54 0 0 1 .31-1.86.17.17 0 0 0-.06-.13 5.08 5.08 0 0 1-1.21-.53.15.15 0 0 0-.16 0c-.07.03-.1.01-.1-.07-.01-.16.03-.3.12-.4a.27.27 0 0 0 .07-.2c0-.17.04-.32.15-.43.15-.16.25-.26.28-.31.28-.42.51-.88.71-1.4.11-.29.25-.53.41-.74.17-.21.3-.45.38-.7.1-.27.32-.41.65-.43a.2.2 0 0 1 .2.1c.12.2.19.42.18.66 0 .28-.04.56-.11.83l-.19.7a5.63 5.63 0 0 0 .15 2.22l-.01.02c-.03.05-.06.07-.1.07-.04-.01-.07 0-.07.05l-.02.07Z" fill="#FAF2CD"/><path d="M18.4 18.69c0 .05.03.08.13.09-.39.96-.13 1.5.78 1.6l.8-.21a.3.3 0 0 0-.06.19c-.21.23-.46.39-.76.46l-.17.04c-.75-.03-1.1-.82-1.14-1.48.04 0 .06-.05.05-.11.17-.19.29-.38.37-.58Z" fill="#5B4F40"/><path d="M20.07 18.75c-.07.1-.07.22 0 .27.07.05.19.01.25-.08.07-.1.07-.22 0-.27-.07-.05-.19-.01-.25.08Z" fill="#FCF9F5"/><path d="M25.77 23.85c-.15-.03-.22.03-.22.17.02.46-.02.88-.12 1.23-.05.2-.08.41-.09.62 0 .46-.16.77.05 1.29l.02 1.06c0 .08.03.16.08.22.35.44.7.85 1.04 1.23.41.46.44.92.08 1.37-.3.37-.54.7-1.03.81-.7.15-1.34.4-1.89.77-.4.27-.88.37-1.34.52-.32.11-.33.23-.01.36l1.02.43c.95.42 1.87.45 2.88.26.65-.12.93-.84 1.27-1.32.33-.5.97-.49 1.41-.88.35-.3.76-.6 1.23-.88a.3.3 0 0 0 .14-.16c.14-.35.24-.71.58-.92.81-.5 1.6-.88 2.34-1.14.7-.24 1.29-.64 1.97-.94a.16.16 0 0 1 .2.07c.05.08.05.15 0 .23-.35.57-.64 1.21-1.17 1.64l-1.54 1.3c-.34.28-.32.84-.38 1.25-.05.4-.29.74-.7 1.04-.4.28-.8.55-1.24.8-.25.14-.27.3-.04.49.05.04.12.07.2.07.08 0 .16.03.22.08l.61.53a.13.13 0 0 1 0 .2.13.13 0 0 1-.06.02c-.76.15-1.56.3-1.84 1.14a.23.23 0 0 0 .16.3c.14.04.28.02.4-.05.56-.3 1.24-.55 1.86-.3.38.15.76.22 1.14.22.36 0 .7.13 1 .38.07.05.15.07.23.06.17-.03.3-.1.4-.21.17.22.56.3 1.16.25.22-.02.38-.14.56-.25l1.78-1.08c.22-.18.42-.2.6-.07.06.04.12.05.19.03.64-.25.73-.7 1.04-1.22.07-.1.17-.18.3-.21.76-.19 1.25-.87 1.5-1.6.08-.25.22-.49.4-.7.26-.29.4-.64.42-1.05a.26.26 0 0 0-.1-.22c-.15-.14-.2-.31-.15-.53.11-.47.05-.87-.2-1.2a.32.32 0 0 1-.07-.2l.02-2.24c.18.66.4 1.3.65 1.9.31.77.5 1.36.58 1.78.23 1.3.26 2.61.07 3.92-.13-.34-.27-.26-.43.24-.16.52-.11.94-.4 1.43-.22.4-.29.83-.33 1.27-.07.65-.13 1.28-.17 1.9-.02.32-.2.56-.51.73a.3.3 0 0 0-.14.15c-.12.26-.16.48-.38.69-.4.39-1.3 1.22-1.44 1.76-.08.3-.33.46-.6.58.19-.23.3-.48.36-.76.09-.43.15-.7.2-.8.13-.33.3-.64.46-.92.59-.98.38-2.09.24-3.16a.28.28 0 0 0-.26-.24c-.53-.04-.98.03-1.38.2-.76.34-1.4.56-2.1 1.2-.5.45-.8 1.1-1.32 1.46-.62.41-1.47.84-2.54 1.27-1.12.44-2.25.86-3.38 1.27-.32.11-.63.26-.93.43-1.06.6-1.58 1.75-2.81 2.05-.37.09-.73.25-1.07.5-.46.31-1.04.4-1.58.5-.6.11-1.16.37-1.8.51-.56-.2-1.15-.42-1.77-.62a9.58 9.58 0 0 1-1.72-.77c-.7-.4-1.32-.78-1.88-1.15a13.33 13.33 0 0 1-2.15-1.79c-.66-.68-.66-1.54-.24-2.34.31-.88.5-1.67.53-2.38.05-.85.11-1.69.18-2.51.02-.25.13-.67.32-1.27.23-.73.26-1.5.1-2.3-.02-.08.01-.13.08-.15.05-.02.1-.01.16 0 .25.28.58.47.94.3.47-.24.86-.56 1.16-.98a.36.36 0 0 0 .04-.34c-.33-.75-.76-1.47-.25-2.29 0 .15-.03.3-.07.47a.54.54 0 0 0 .06.44l.07.17c.07.35.28.62.62.8.45.26.93.46 1.44.61.42.13.84-.03 1.25-.49.3.01.82.12 1.55.34.4.12.74.02 1.03-.28.2-.08.66-.16 1.35-.24.3-.04.9-.24 1.78-.6a.14.14 0 0 0 .07-.08.15.15 0 0 0 0-.1v-.06a.09.09 0 0 0-.09-.06h-.03c-.67.23-1.37.35-2.12.37-.28 0-.54.12-.8.2-.47.16-1.37-.27-1.78-.49a.67.67 0 0 1 .31-.65c.06-.04.1-.1.13-.16.06-.15.18-.22.35-.22.2.05.53.01.98-.1.28-.06.43-.19.44-.37a.25.25 0 0 0-.13-.22.57.57 0 0 1-.23-.25c-.02-.04 0-.08.05-.1l.06-.01c.03-.01.05 0 .06.02.05.12.13.2.24.22.07.02.14 0 .22-.06.23-.18.34-.45.33-.82.14-.25.38-.45.71-.62.07-.04.1-.1.08-.17-.07-.4-.24-.75-.48-1.05-.26-.3-.68-.41-1-.67-.41-.33-.97-.27-1.44-.12a.09.09 0 0 0-.06.05v.03c0 .04-.02.07-.07.07a.6.6 0 0 0-.3.12 3.9 3.9 0 0 0-1.08-.81c-.7-.43-1.6-.38-2.4-.36l.3-.48c.1-.16.22-.3.37-.42l.72-.58c.1-.09.18-.17.24-.26.19-.26.18-.38-.01-.38.3-.07.55-.23.76-.46l.75-.7c.06-.06.11-.06.17 0 .15.14.18.28.1.42a8.1 8.1 0 0 0-.79 1.52c-.02.08 0 .11.09.1a.92.92 0 0 0 .56-.37c.32-.42.79-.77 1.4-1.07.06-.03.12-.02.16.02a.2.2 0 0 1 .07.13c.02.18.09.2.2.05.3-.41.7-.83 1.17-1.24.07-.06.12-.05.16.02.15.28.15.55 0 .8-.18.35-.35.72-.47 1.1-.03.07-.07.1-.14.1h-.13a.13.13 0 0 0-.12.11v.06l.2.55c.04.09.06.18.07.27l.09.58a.22.22 0 0 0 .33.16.22.22 0 0 0 .1-.11l.34-.92a.19.19 0 0 1 .34-.02c.3.51.47 1.05.52 1.6a.18.18 0 0 0 .15.17c.16.03.3.08.4.16Z" fill="#E0C06E"/><path d="M30.1 21a.88.88 0 0 1-.42.08.26.26 0 0 0-.2.08c-.23.22-.41.5-.72.64-.4.18-.8.2-1.2.09-.39-.56-.43-1.1-.15-1.63a.1.1 0 0 1 .18-.02c.09.11.2.17.33.18.14 0 .18-.06.13-.19-.41-.92-1.38.12-1.55.5-.2.46-.04.88.48 1.24l.04.08c.02.05.01.1-.03.15a.3.3 0 0 1-.1.05c-.4-.11-.99-.18-1.21-.54-.13-.21-.22-.43-.27-.65a.2.2 0 0 1 .06-.2l.87-.8.97-.62c.71-.2 1.3-.11 1.75.25.33.26.67.61 1 1.06.04.04.06.08.06.11l-.01.13Z" fill="#0B0802"/><path d="M17.98 19.38c.03.66.4 1.45 1.14 1.48-.3.3-.59.63-.84.97a.5.5 0 0 1-.56.2c-.5-.12-.69-.45-.55-1 .07-.3.1-.6.12-.92 0-.2.1-.35.3-.42.09-.04.22-.14.39-.3Z" fill="#E1B051"/><path d="M27.55 21.89c-.07.09-.26.11-.57.08-.52-.36-.68-.78-.48-1.24.17-.38 1.14-1.42 1.55-.5.05.13.01.2-.13.19a.45.45 0 0 1-.33-.18.1.1 0 0 0-.18.02c-.28.53-.24 1.07.14 1.63Z" fill="#FCF9F5"/><path d="M37.88 26.73a6.24 6.24 0 0 0-1.32-.1 15 15 0 0 1-1.32-.03 5.75 5.75 0 0 0-2.6.43c-1.07.45-2.06.92-2.97 1.41a.8.8 0 0 1-.3.1.7.7 0 0 1-.36-.07c-.6-.26-1.15-.3-1.67-.14a.29.29 0 0 1-.25-.04c-.2-.13-.33-.3-.42-.51a.42.42 0 0 0-.42-.26c-.37.03-.66-.1-.86-.37-.21-.51-.05-.82-.05-1.28 0-.2.04-.41.1-.62.09-.36.13-.77.11-1.23 0-.14.07-.2.22-.17.58.03 1.17.06 1.76.07.56.01.93.12 1.35-.34.05-.06.11-.1.19-.13.25-.1.5-.17.72-.34a6.3 6.3 0 0 0 1.67-2.04.28.28 0 0 1 .29-.15c.69.08 1.35.06 1.99-.07a.16.16 0 0 1 .18.12l.02.08c.03.1.1.15.2.14l.51-.03c.08 0 .15 0 .22.04l.66.33c.08.04.17.05.26.04a.1.1 0 0 0 .07-.06.1.1 0 0 0 0-.09l-.28-.4a.1.1 0 0 1 .09-.15l.74.03c.09 0 .12.05.1.13l-.1.5c0 .05.01.08.06.08.02 0 .05 0 .06-.03.11-.15.2-.31.28-.49a.1.1 0 0 1 .07-.06.1.1 0 0 1 .08.04c.1.12.14.25.13.4 0 .06.01.1.05.15l.49.5c.05.06.05.12.02.19-.19.33-.13.63.17.9.04.05.06.1.05.16a.62.62 0 0 1-.11.25c-.2.28-.03.73.2.91.05.04.05.09.01.14-.18.24-.3.5-.33.8a.2.2 0 0 0 .1.2l.3.2c.07.04.1.1.1.18-.01.26-.1.48-.26.68Z" fill="#FAF2CD"/><path d="M30.1 21c0 .1-.04.19-.12.28-.4.43-.86.95-1.42 1.13-.66.2-1.09-.05-1.67-.16a.3.3 0 0 0 .1-.05c.04-.05.05-.1.03-.15l-.04-.08c.31.04.5 0 .57-.08.42.12.82.09 1.2-.09.32-.14.5-.42.74-.64a.26.26 0 0 1 .2-.08c.15 0 .29-.02.42-.09ZM17.67 22.94c.8-.02 1.7-.07 2.4.36-.15.08-.23.13-.25.16-.11.3-.33.4-.63.3a5 5 0 0 0-2.23-.17c-.09.02-.2-.02-.33-.11a.42.42 0 0 1 .17-.22l.87-.32Z" fill="#5B4F40"/><path d="M20.07 23.3c.43.22.79.49 1.08.8l.08.18c-.1.48-.43 1.33-.9 1.56a.42.42 0 0 0-.2.2.4.4 0 0 1-.17.2c-.33.19-.66.4-1 .64-.32.24-.8.34-1.16.13-.53-.3-.96-.74-1.31-1.32l.01-.05c-.02-.13 0-.22.03-.27.05-.06.11-.07.19-.03.12.07.23.08.34.04.3-.1.29-.19-.02-.25a1.6 1.6 0 0 1-.66-.35c-.08-.24-.1-.5-.05-.8a1 1 0 0 1 .3-.5c.13.09.24.13.33.11a5 5 0 0 1 2.23.18c.3.1.52-.01.63-.3.02-.04.1-.1.25-.17Z" fill="#0B0802"/><path d="M23.71 26.47c.03-.09-.03-.17-.2-.25-.07-.04-.1-.1-.07-.17.06-.22 0-.41-.18-.58-.3-.28-.57-.58-.82-.9-.2-.25-.48-.37-.8-.4-.1-.02-.14.04-.12.17-.06.02-.15 0-.29-.06l-.08-.18a.6.6 0 0 1 .3-.1c.05 0 .08-.04.07-.08v-.03a.09.09 0 0 1 .06-.05c.47-.15 1.03-.2 1.44.12.32.26.74.36 1 .67.24.3.4.64.48 1.05.02.08 0 .13-.08.17-.33.17-.57.37-.7.62Z" fill="#EFE2AD"/><path d="M16.33 23.98c-.05.3-.03.56.05.8l.12.86-.01.05c-.67.52-.82 1.08-.44 1.66l-.04.22c0 .07-.05.1-.11.07a.36.36 0 0 1-.21-.17 4.71 4.71 0 0 1-.46-1.74c-.02-.55.13-1.37.59-1.74.35-.28.53-.29.51 0ZM23.71 26.47c.01.37-.1.64-.33.82-.08.06-.15.08-.22.06-.1-.02-.19-.1-.24-.22-.01-.03-.03-.03-.06-.02l-.06.01c-.06.02-.07.06-.05.1.05.1.13.19.23.25a.25.25 0 0 1 .13.22c0 .18-.16.3-.44.38-.45.1-.78.14-.98.1a.85.85 0 0 1-.55-.44.29.29 0 0 1-.04-.2c.05-.25.06-.49.04-.72-.03-.29.12-.53.3-.73a.29.29 0 0 0 .08-.2v-1.54c-.02-.13.03-.2.13-.18.31.04.6.16.8.41.24.32.52.62.81.9.18.17.24.36.18.58-.02.08 0 .13.07.17.17.08.23.16.2.25Z" fill="#FCF9F5"/><path d="M21.23 24.28c.14.06.23.08.29.06v1.55c0 .07-.03.14-.08.19-.18.2-.33.44-.3.73.02.23 0 .47-.04.71-.01.08 0 .14.03.2.14.25.33.4.56.44-.17 0-.29.07-.35.22a.37.37 0 0 1-.13.16.67.67 0 0 0-.31.65 312.85 312.85 0 0 1-2.11-.8 2.55 2.55 0 0 0-1.86 0c-.15.33-.13.62.08.87.15.18.36.37.61.43.34.08.96.18 1.2.43.05.05.1.08.18.08l.94-.01c-.4.46-.83.62-1.25.49-.51-.15-.99-.36-1.44-.6a1.19 1.19 0 0 1-.62-.81.5.5 0 0 0-.07-.17.54.54 0 0 1-.06-.44c.04-.17.07-.32.07-.47l-.52-.84c-.38-.58-.23-1.14.44-1.66.35.58.78 1.02 1.3 1.32.37.2.85.1 1.18-.13.33-.24.66-.45.99-.64a.4.4 0 0 0 .18-.2c.04-.09.1-.16.2-.2.46-.23.8-1.08.9-1.56ZM16.38 24.78c.24.2.46.3.66.35.3.06.31.15.02.25-.11.04-.22.03-.34-.04-.08-.04-.14-.03-.19.03-.04.05-.05.14-.03.27l-.12-.86Z" fill="#968C78"/><path d="M19.31 25.8c.28.12.53.16.56.1.03-.08-.18-.22-.46-.34-.28-.11-.53-.15-.56-.08-.02.07.18.21.46.33Z" fill="#5B4F40"/><path d="M22.51 26.12c0 .06-.03.1-.09.13-.05.03-.09.01-.1-.05 0-.04 0-.08.02-.12.1-.2.16-.18.17.04Z" fill="#968C78"/><path d="M37.88 26.73c-.48.43-.67 1-.58 1.71 0 .04 0 .08-.02.12l-.36.6c-.04.08-.1.1-.17.03l-.08-.08a.17.17 0 0 0-.1-.04c-.02 0-.06 0-.09.02-.11.05-.16.14-.15.27.04.36.1.72.17 1.1a.54.54 0 0 1-.15.47c-.4.4-1.28 1.17-1.3 1.78 0 .24-.07.43-.19.57-.15.17-.36.3-.62.4v.01l.01.08c.03.08.08.12.17.1.43-.08.83-.3 1.2-.67a.07.07 0 0 1 .09 0 .07.07 0 0 1 .02.09l-.55.93a.25.25 0 0 0-.04.16c.03.21.02.42-.03.63a.14.14 0 0 0 .13.17l.07-.01c.14-.06.27-.1.42-.12.04 0 .08.01.11.04s.05.06.06.1c.05.4-.07.73-.36 1a9 9 0 0 0-.92 1.02.62.62 0 0 1-.4.2.26.26 0 0 1-.21-.05 1.58 1.58 0 0 0-1-.38c-.4 0-.77-.07-1.15-.22-.62-.25-1.3 0-1.85.3a.53.53 0 0 1-.4.05.24.24 0 0 1-.17-.3c.28-.84 1.08-1 1.84-1.14a.13.13 0 0 0 .06-.22l-.6-.53a.33.33 0 0 0-.23-.08.32.32 0 0 1-.2-.07c-.23-.19-.2-.35.04-.5.44-.24.85-.5 1.24-.79.41-.3.65-.64.7-1.04.06-.41.04-.97.38-1.26l1.54-1.29c.53-.43.82-1.07 1.17-1.64a.21.21 0 0 0 0-.23.16.16 0 0 0-.2-.07c-.68.3-1.27.7-1.97.94-.75.26-1.53.64-2.34 1.14-.34.2-.44.57-.58.92a.3.3 0 0 1-.14.16c-.47.28-.88.57-1.23.88-.44.4-1.08.39-1.41.88-.34.48-.62 1.2-1.27 1.32a4.72 4.72 0 0 1-2.88-.26l-1.02-.43c-.32-.13-.31-.25 0-.36.47-.15.94-.25 1.35-.52a5.48 5.48 0 0 1 1.89-.77c.49-.1.74-.45 1.03-.81.36-.45.33-.9-.08-1.37a23.4 23.4 0 0 1-1.04-1.23.35.35 0 0 1-.08-.22l-.02-1.06c.2.27.49.4.86.36a.42.42 0 0 1 .42.26c.1.21.23.38.42.51a.29.29 0 0 0 .25.04 2.32 2.32 0 0 1 1.67.14.7.7 0 0 0 .36.06.8.8 0 0 0 .3-.09c.91-.49 1.9-.96 2.96-1.4a5.75 5.75 0 0 1 2.6-.44 15 15 0 0 0 1.33.02c.45 0 .89.02 1.32.1Z" fill="#E7CF90"/><path d="m22.1 27.52-.05-.07c-.04-.07-.02-.1.06-.12.05-.01.1 0 .13.03a.1.1 0 0 1 .04.07c0 .06-.02.1-.07.12-.02.01-.05.01-.07 0a.09.09 0 0 1-.04-.03Z" fill="#968C78"/><path d="M19.98 27.92a.1.1 0 0 1-.06-.04.1.1 0 0 1-.02-.06c0-.09.02-.16.1-.2.07-.04.12-.03.16.04.03.05.04.1.05.15 0 .1-.05.14-.14.12l-.09-.01Z" fill="#5B4F40"/><path d="M20.9 29.2c.41.21 1.31.64 1.78.48.26-.08.52-.2.8-.2a7.06 7.06 0 0 0 2.15-.37.09.09 0 0 1 .08.06l.02.05v.1a.14.14 0 0 1-.08.08c-.88.37-1.47.57-1.78.6-.7.1-1.14.17-1.35.25-.3-.15-.63-.3-.97-.44a5.42 5.42 0 0 0-1.01-.3 18.89 18.89 0 0 1-3.61-1.12 2.55 2.55 0 0 1 1.86 0 295.38 295.38 0 0 0 2.1.8Z" fill="#0B0802"/><path d="M16.93 28.39c1.18.5 2.38.88 3.6 1.13.4.08.74.17 1.02.3.34.14.66.28.97.43-.3.3-.64.4-1.03.28a7.39 7.39 0 0 0-1.55-.34l-.94.01a.25.25 0 0 1-.18-.08c-.24-.25-.86-.35-1.2-.43a1.23 1.23 0 0 1-.61-.43c-.2-.25-.23-.54-.08-.87Z" fill="#5B4F40"/><path d="m38.13 36.13-1.78 1.08h-.16a.13.13 0 0 1-.1-.2l.85-1.24c.1-.15.16-.33.17-.53 0-.09-.05-.14-.14-.14-.64-.02-.57-.54-.62-1-.02-.21.04-.37.19-.49.9-.71 1.65-1.56 2.28-2.54.49-.77 1.3-1.16 1.9-1.81a.1.1 0 0 1 .1-.03.09.09 0 0 1 .05.08c.02.58-.15 1.08-.5 1.52-.39.47-.58 1-.92 1.48a.3.3 0 0 0-.05.23c.14.6.04 1.08-.3 1.46-.19.2-.34.42-.45.66-.22.48-.4.96-.52 1.47Z" fill="#B87C29"/><path d="M16.34 33.8c-.18.05-.17.2.02.48.09.1.19.22.3.31.93.78 1.42 1.58 2.67 2.06.08.04.15.1.18.18.1.2.17.39.23.58.16.45.45.86.9 1.22a.25.25 0 0 0 .2.05.24.24 0 0 0 .17-.13.25.25 0 0 1 .06-.08.13.13 0 0 1 .09-.03c.03 0 .06.01.08.03.58.52.8 1.8.99 2.6a.19.19 0 0 0 .23.13c.03 0 .06-.02.08-.05.53-.55.87-1.2 1-1.97.01-.08.06-.11.14-.1h.07a.05.05 0 0 1 .05.03v.02l-.03.33c0 .09.03.12.12.11.06 0 .1-.03.13-.09l.47-1.03c.12-.25.33-.45.63-.61.6-.3 1.24-.58 1.76-.99a7.68 7.68 0 0 1 1.45-.91.1.1 0 0 0-.02-.13c-.02-.01-.06 0-.12.02.42-.18.73-.33.91-.44.5-.3.67-.17.53.39a5.6 5.6 0 0 1-.4 1.04c-.13.25-.3.45-.54.57-.7.4-1.16 1.04-1.88 1.38a3.18 3.18 0 0 0-1.69 1.87c-.24.76-.7 1.4-1.13 2.05a4.4 4.4 0 0 1-2 1.55c-.24.06-.46.16-.66.29a.16.16 0 0 1-.2-.02 2.82 2.82 0 0 1-.23-.83 9.63 9.63 0 0 0-.8-2.89 2.82 2.82 0 0 0-.62-.9 101.1 101.1 0 0 1-2.95-2.98c-.43-.45-.64-.97-.91-1.5a4.22 4.22 0 0 1-.33-2.25.16.16 0 0 1 .07-.05c.02-.01.05-.02.08-.01.03 0 .06.01.08.03l.82.67Z" fill="#E1B051"/><path d="m16.34 33.8.92.68c.22.16.43.34.62.54.64.65 1.8.94 2.73 1.17.52.13 1.2.19 2.05.17a40.7 40.7 0 0 0 5.65-.55.1.1 0 0 1-.01.16c-.5.24-.97.53-1.42.88-.52.41-1.16.69-1.76.99-.3.16-.51.36-.63.6-.15.36-.31.7-.47 1.04a.15.15 0 0 1-.13.1c-.09 0-.12-.03-.12-.12l.03-.33a.05.05 0 0 0-.05-.05h-.07c-.08-.01-.13.02-.14.1a3.66 3.66 0 0 1-1 1.97.18.18 0 0 1-.18.05.18.18 0 0 1-.13-.13c-.2-.8-.4-2.08-.99-2.6a.13.13 0 0 0-.08-.03c-.04 0-.07 0-.09.03a.26.26 0 0 0-.06.08.23.23 0 0 1-.17.13.25.25 0 0 1-.2-.05 2.7 2.7 0 0 1-.9-1.22c-.06-.2-.14-.39-.23-.58a.33.33 0 0 0-.18-.18c-1.25-.48-1.74-1.28-2.67-2.06-.11-.1-.21-.2-.3-.31-.2-.27-.2-.43-.02-.48Z" fill="#B87C29"/><path d="M43.38 34.52c.06.44.14.88.23 1.31.14.62.1 1.17.13 1.8.02.65.24 1.4.26 2.13 0 .49 0 .97-.03 1.45-.03.9-1.78 2.3-2.7 3.08-.78.67-1.52.97-2.2.9-.38-.25-.91-.25-1.59 0-.2.07-.22.03-.07-.12.29-.3.5-.68.65-1.13a.42.42 0 0 1 .13-.2c.24-.2.5-.35.8-.47.26-.12.51-.28.59-.58.14-.54 1.04-1.37 1.44-1.76.22-.21.26-.43.38-.7a.3.3 0 0 1 .14-.14c.32-.17.5-.41.51-.73a52 52 0 0 1 .17-1.9c.04-.44.11-.88.34-1.27.28-.49.23-.91.4-1.43.15-.5.3-.58.42-.24Z" fill="#C89539"/><path d="M38.98 43.27c-.3.12-.55.28-.79.47a.42.42 0 0 0-.13.2 2.9 2.9 0 0 1-.65 1.13c-.15.15-.12.2.08.12.67-.25 1.2-.25 1.58 0a.83.83 0 0 1-.21.61c-.1.13-.28.24-.52.32-.89.29-1.69.62-2.41 1-.55.28-1.13.32-1.72.47-.18.05-.39 0-.54.14a.26.26 0 0 1-.21.07 4.29 4.29 0 0 0-1.29.04c-.39.08-.77.12-1.15.12-2.58.03-5.29.12-7.89-.14a2.32 2.32 0 0 1-1-.35l-1.07-.69c.65-.14 1.22-.4 1.8-.51.55-.1 1.13-.19 1.59-.5.34-.25.7-.41 1.07-.5 1.23-.3 1.75-1.46 2.8-2.05.3-.17.62-.32.94-.43 1.13-.4 2.26-.83 3.38-1.27 1.07-.43 1.92-.86 2.54-1.27.51-.35.83-1 1.32-1.47.7-.63 1.34-.85 2.1-1.19.4-.17.85-.24 1.38-.2a.29.29 0 0 1 .26.24c.14 1.07.35 2.18-.24 3.16-.17.28-.33.6-.47.92-.04.1-.1.37-.19.8a1.7 1.7 0 0 1-.36.76Z" fill="#E7CF90"/><path opacity=".8" d="M19.93 12H16v8.26h3.93v15.48H16V44H31.83a7.69 7.69 0 0 0 .62-.04 13.88 13.88 0 0 0 5.91-1.94c3.56-2.15 6.64-6.36 6.64-13.5 0-7.5-2.94-11.97-6.5-14.33A13.4 13.4 0 0 0 31.84 12h-.1.1-11.91ZM31.7 35.74h-2.91V20.26h3c.12.02.33.04.6.1.54.12 1.24.36 1.92.8 1.1.74 2.84 2.46 2.84 7.36 0 4.2-1.6 5.68-2.71 6.36a6.26 6.26 0 0 1-2.74.86Z" fill="#fff"/></svg>