<!-- by TradingView --><svg width="56" height="56" viewBox="0 0 56 56" xmlns="http://www.w3.org/2000/svg"><path fill="#FF564F" d="M0 0h56v56H0z"/><path d="M37 24h2l-4.5 10h-2L28 24h2l3.5 8 3.5-8ZM10 34V22H8v12h2ZM15.5 34 11 28l4.5-6H18l-4.5 6 4.5 6h-2.5ZM23.23 24c-2.2 0-3.91 1.2-4.03 3h1.96c.18-.85 1.32-1 2.07-1 .74 0 1.77.35 1.77 1.38V28h-2.49C20.3 28 19 29.33 19 31.02 19 32.8 20.33 34 22.3 34a3.5 3.5 0 0 0 2.7-1.04V34h2v-6.78c0-1.95-1.5-3.22-3.77-3.22ZM25 29.51v.6c-.13 1.3-1 1.82-2.36 1.89-.79.04-1.48-.36-1.48-1s.47-1.22 1.6-1.3l2.24-.19ZM44.22 24c-2.19 0-3.9 1.2-4.03 3h1.97c.18-.85 1.32-1 2.06-1s1.78.35 1.78 1.38V28h-2.5c-2.22 0-3.5 1.33-3.5 3.02C40 32.8 41.33 34 43.29 34a3.5 3.5 0 0 0 2.7-1.04V34h2v-6.78c0-1.95-1.5-3.22-3.77-3.22ZM46 29.51v.6c-.13 1.3-1 1.82-2.36 1.89-.8.04-1.48-.36-1.48-1s.47-1.22 1.6-1.3l2.24-.19Z" fill="#fff"/></svg>