<!-- by TradingView --><svg width="56" height="56" viewBox="0 0 56 56" xmlns="http://www.w3.org/2000/svg"><path fill="url(#a0wwihzu0)" d="M0 0h56v56H0z"/><path d="M19.34 22.16a2.13 2.13 0 0 1 2.14 0l4.89 2.92 3.32 1.9 4.9 2.92c.62.38 1.44.38 2.13 0l3.89-2.28c.63-.38 1.39-1.08 1.39-1.84v-4.5c0-.76-.7-1.46-1.4-1.84l-3.82-2.22a2.13 2.13 0 0 0-2.13 0l-3.83 2.22c-.62.38-.82 1.08-.82 1.84v2.91l-3-1.96V19.3c0-.76-.2-1.46.5-1.84l7.09-4.18a2.13 2.13 0 0 1 2.13 0l7.21 4.18A2.06 2.06 0 0 1 45 19.31v8.44c0 .76-.38 1.45-1.07 1.84l-7.21 4.18c-.63.38-1.44.38-2.13 0l-4.9-2.85-3.32-1.97-4.9-2.85a2.13 2.13 0 0 0-2.13 0l-3.82 2.22c-.63.38-1.52 1.08-1.52 1.84v4.5c0 .76.83 1.46 1.52 1.84l3.82 2.28c.63.38 1.45.38 2.14 0l3.82-2.22c.63-.38 1.7-1.08 1.7-1.84v-2.91l3 1.96v2.92c0 .76-.68 1.46-1.37 1.84L21.4 42.7c-.62.39-1.44.39-2.13 0l-7.21-4.18A2.2 2.2 0 0 1 11 36.69v-8.44c0-.76.38-1.46 1.07-1.84l7.27-4.25Z" fill="#fff"/><defs><linearGradient id="a0wwihzu0" x1="0" y1="0" x2="56" y2="56" gradientUnits="userSpaceOnUse"><stop stop-color="#8F34C2"/><stop offset="1" stop-color="#7442DB"/></linearGradient></defs></svg>