<!-- by TradingView --><svg width="56" height="56" viewBox="0 0 56 56" xmlns="http://www.w3.org/2000/svg"><path fill="#00EC97" d="M0 0h56v56H0z"/><path d="m36.44 15.43-5.85 8.68c-.4.6.38 1.3.94.81l5.1-5c.15-.13.37-.04.37.18v15.65c0 .21-.28.3-.4.15L19.84 15.06A2.87 2.87 0 0 0 17.57 14c-1.8 0-3.57.91-3.57 2.99V39a2.99 2.99 0 0 0 5.53 1.56l5.84-8.68c.4-.6-.37-1.3-.93-.81l-5.07 5.1c-.15.13-.37.04-.37-.18V20.38c0-.22.28-.3.4-.15l16.73 20.71c.56.69 1.4 1.06 2.27 1.06 1.81 0 3.6-.9 3.6-2.99V17a3 3 0 0 0-5.56-1.56Z"/></svg>