<!-- by TradingView --><svg width="56" height="56" viewBox="0 0 56 56" xmlns="http://www.w3.org/2000/svg"><path fill="#1B1452" d="M0 0h56v56H0z"/><path opacity=".6" d="M29.67 16.95c-3.25-.55-6.4.21-8.98 1.89l-.09.1c1-.62 2.44-1.17 2.44-1.17-3.73 2.23-4.88 4.76-4.88 4.76 1.45-2.89 5.7-4.92 9.04-5.06 3.34-.14 5.52.87 8.2 3.07 2.66 2.23 4.27 6.77 4.11 10.37-.14 3.6-1.98 6.51-1.98 6.51a17.34 17.34 0 0 0 2.51-4.17c.1-.37.18-.75.23-1.16 1.15-7.2-3.59-13.98-10.6-15.14Z" fill="url(#amjnl4gw0)"/><path d="M42.92 17.66c-.33-1.26-1.36-2.51-3.22-3.9C38.2 12.63 36.6 12 35.35 12c-.26 0-.49.02-.72.07a2.1 2.1 0 0 0-1.4 1.18c-.39.76-.48 1.78-.23 2.4.1.18.2.42.35.63-1.22.76-1.91.97-2 1a13.72 13.72 0 0 1 7.47 6.32l.02-.29c.07-.78.3-1.68.63-2.6.32.1.64.14.96.14.85 0 1.59-.35 2.05-1 .46-.63.64-1.48.44-2.2Z" fill="#5E12A0"/><path d="M39.6 20.02c2.1.6 2.95-1.06 2.67-2.17-.3-1.12-1.26-2.25-2.97-3.53-1.7-1.28-3.42-1.8-4.53-1.56-1.1.23-1.42 1.96-1.15 2.62.12.26.37.64.72 1.07-.44.3-.86.54-1.2.76 2.12.97 3.96 2.48 5.34 4.38.16-.64.39-1.21.6-1.7.15.02.34.06.52.13Z" fill="url(#bmjnl4gw0)"/><path d="M27.62 43.22c7.1 0 12.86-5.92 12.86-13.23 0-7.3-5.76-13.23-12.86-13.23s-12.86 5.92-12.86 13.23c0 7.3 5.76 13.23 12.86 13.23Z" fill="url(#cmjnl4gw0)"/><path opacity=".6" d="M41.21 16.76a8.49 8.49 0 0 0-4.99-2.8c-1.38-.33-1.01-1.13.67-.97a4.1 4.1 0 0 0-2.12-.23c-1.1.23-1.42 1.96-1.15 2.62.12.26.37.64.72 1.07-.63.43-1.16.73-1.6.97a10.53 10.53 0 0 1 2.4 1.51c-1.29-1.13-1.01-1.65.76-2.93.55-.4 1.56-.36 2.5.14.95.5 2.05 1.75 2.05 1.75l-1.05 2.09.2.07c.67.19 1.2.14 1.61-.03.49-.3 1.75-1.35 0-3.26Z" fill="#A98698"/><path d="M36.2 15.1a12.83 12.83 0 0 1 3.91 2.8 12.65 12.65 0 0 0-1.66 3.61l.5.71c.17-.59.45-1.46.81-2.34.1.03.21.03.33.03.27 0 .6-.05.85-.27.18-.14.39-.4.37-.87 0-.45-.35-1.02-1.06-1.7-.5-.5-1.2-1.05-1.89-1.54-1.98-1.35-3.36-1.73-3.98-1.1-.41.43-.37.95-.23 1.33-.73.5-1.36.86-1.77 1.1.28.09.53.2.8.32.74-.4 1.8-1.09 3.02-2.08Zm4.35 3.39c.07.11.09.23.09.3 0 .22-.07.29-.12.33a.8.8 0 0 1-.43.12c.13-.28.3-.52.46-.75Zm-5.69-3.53c.07-.07.26-.12.56-.07-.23.19-.46.35-.7.52-.02-.17 0-.33.14-.45Z" fill="#5E12A0"/><path opacity=".6" d="M27.62 43.22c7.1 0 12.86-5.92 12.86-13.23 0-7.3-5.76-12.99-12.86-12.99s-12.86 5.68-12.86 12.99c0 7.3 5.76 13.23 12.86 13.23Z" fill="url(#dmjnl4gw0)"/><path opacity=".6" d="M27.53 41.6c-7.02-1.15-11.78-7.94-10.63-15.16.5-3.2 2.07-5.92 4.28-7.88a13.2 13.2 0 0 0-6.26 9.32c-1.13 7.22 3.63 14.01 10.63 15.17 3.9.67 7.68-.59 10.46-3.05a12.6 12.6 0 0 1-8.48 1.6Z" fill="#A98698"/><path d="M39.5 29.87c0 6.93-5.37 12.57-11.99 12.57-6.61 0-12.01-5.64-12.01-12.57h24Z" fill="url(#emjnl4gw0)"/><path opacity=".6" d="M38.55 29.87c0 6.77-5.1 12.3-11.51 12.57h.47c6.62 0 11.99-5.64 11.99-12.57h-.95Z" fill="url(#fmjnl4gw0)"/><path opacity=".7" d="M17.1 29.87h-1.42c0 6.93 5.18 12.57 11.92 12.57.3 0 .57 0 .85-.03-6.33-.47-11.34-5.91-11.34-12.54Z" fill="url(#gmjnl4gw0)"/><path d="M39.5 29.99c0-1.45-2.4-2.27-5.58-2.56-2.3-.19-4.63.05-7.3.9-2.3.71-4.39.6-5.9.4-3.37-.4-5.22-.45-5.22 1.26 0 2.46 4.8 5.54 11.98 4.47 3.64-.54 5.51-1.66 7.66-2.41 2.33-.8 4.36-.78 4.36-2.06Z" fill="url(#hmjnl4gw0)"/><path d="M32 24a2 2 0 1 0 0-4 2 2 0 0 0 0 4ZM35 26a1 1 0 1 0 0-2 1 1 0 0 0 0 2Z" fill="#fff"/><path opacity=".6" d="M38.13 20.19h-.05c-.13-.02-.23-.17-.2-.33A5.49 5.49 0 0 1 39 17.68c.1-.12.28-.12.37-.02.12.1.12.28.03.38-.03.02-.83.99-1.02 1.94a.25.25 0 0 1-.25.2Z" fill="url(#imjnl4gw0)"/><path opacity=".2" d="M26.77 39.86c.35 0 .64-.3.64-.66a.65.65 0 0 0-.64-.67c-.36 0-.65.3-.65.67 0 .36.3.66.65.66Z" fill="#fff"/><path opacity=".6" d="M26.4 39.62a.69.69 0 0 1 0-.94l.14-.12a.48.48 0 0 0-.23.14.69.69 0 0 0 0 .95c.2.2.53.26.78.11-.23.1-.5.05-.7-.14Z" fill="#fff"/><path opacity=".3" d="M27 39c.07 0 .14-.06.14-.14a.14.14 0 0 0-.14-.14.14.14 0 0 0-.14.14c0 .08.06.15.14.15Z" fill="#fff"/><path opacity=".2" d="M30.13 39.53c.35 0 .64-.3.64-.67a.65.65 0 0 0-.64-.66c-.36 0-.65.3-.65.66 0 .37.3.67.65.67Z" fill="#fff"/><path opacity=".6" d="M29.76 39.3a.69.69 0 0 1 0-.96l.14-.11a.48.48 0 0 0-.23.14.69.69 0 0 0 0 .94c.2.22.52.26.78.12-.23.1-.5.05-.7-.14Z" fill="#fff"/><path opacity=".3" d="M30.36 38.67c.07 0 .13-.06.13-.14a.14.14 0 0 0-.13-.14.14.14 0 0 0-.14.14c0 .08.06.14.14.14Z" fill="#fff"/><path opacity=".2" d="M28.47 41.07c.27 0 .48-.23.48-.5 0-.28-.21-.5-.48-.5a.49.49 0 0 0-.48.5c0 .27.21.5.48.5Z" fill="#fff"/><path opacity=".6" d="M28.2 40.88a.53.53 0 0 1 0-.71c.02-.03.06-.05.09-.07a.41.41 0 0 0-.17.11.53.53 0 0 0 0 .71c.17.17.4.2.6.07a.49.49 0 0 1-.53-.11Z" fill="url(#jmjnl4gw0)"/><path opacity=".2" d="M31.44 40.71c.26 0 .48-.22.48-.5 0-.27-.22-.5-.48-.5a.49.49 0 0 0-.49.5c0 .28.22.5.49.5Z" fill="#fff"/><path opacity=".6" d="M31.16 40.52a.53.53 0 0 1 0-.7c.02-.03.07-.06.1-.08a.41.41 0 0 0-.17.12.53.53 0 0 0 0 .7c.16.17.4.2.6.08a.49.49 0 0 1-.53-.12Z" fill="#fff"/><path opacity=".3" d="M31.6 40.05a.1.1 0 0 0 .09-.1.1.1 0 0 0-.1-.1.1.1 0 0 0-.08.1c0 .06.04.1.09.1Z" fill="#fff"/><path opacity=".2" d="M24.03 39.62c.58 0 1.06-.49 1.06-1.09 0-.6-.48-1.09-1.06-1.09-.58 0-1.06.5-1.06 1.1 0 .6.48 1.08 1.06 1.08Z" fill="#fff"/><path opacity=".6" d="M23.43 39.22a1.1 1.1 0 0 1 0-1.54.83.83 0 0 1 .23-.17c-.14.05-.25.15-.37.24a1.1 1.1 0 0 0 0 1.54c.35.36.88.43 1.3.17a1 1 0 0 1-1.16-.24Z" fill="#fff"/><path opacity=".3" d="M24.4 38.2c.12 0 .23-.1.23-.24 0-.13-.1-.23-.23-.23s-.23.1-.23.23c0 .14.1.24.23.24Z" fill="#fff"/><path opacity=".2" d="M33.48 36.95c.59 0 1.06-.5 1.06-1.1 0-.6-.47-1.08-1.06-1.08-.58 0-1.05.49-1.05 1.09 0 .6.47 1.09 1.05 1.09Z" fill="#fff"/><path opacity=".6" d="M32.86 36.54a1.1 1.1 0 0 1 0-1.53.83.83 0 0 1 .23-.17c-.14.05-.25.14-.37.24a1.1 1.1 0 0 0 0 1.54c.35.35.88.42 1.3.16-.4.17-.84.1-1.16-.24Z" fill="url(#kmjnl4gw0)"/><path opacity=".3" d="M33.85 35.53c.13 0 .23-.1.23-.24 0-.13-.1-.24-.23-.24s-.23.1-.23.24c0 .13.1.24.23.24Z" fill="#fff"/><path d="M27.62 16C20.1 16 14 22.27 14 30s6.1 14 13.62 14S41 37.73 41 30s-5.88-14-13.38-14Zm0 27C20.5 43 15 37.3 15 30s5.51-13 12.62-13C34.72 17 40 22.7 40 30s-5.3 13-12.38 13Z" fill="#5E12A0"/><path d="M40.3 12.95c1.9 1.43 3.17 2.86 3.58 4.44.3 1.05.02 2.2-.59 3.05a3.45 3.45 0 0 1-3.14 1.4c-.05.18-.1.35-.13.51A15.54 15.54 0 0 1 42 30c0 8.24-6.26 15-14.38 15C19.52 45 13 38.26 13 30s6.52-15 14.62-15c1.52 0 2.98.24 4.34.68a4.5 4.5 0 0 1 .38-2.88 3.1 3.1 0 0 1 2.1-1.7c.3-.07.59-.1.9-.1 1.57 0 3.36.77 4.95 1.95Zm-7.07.3c-.39.76-.48 1.78-.23 2.4a7.25 7.25 0 0 0 .35.63 26.3 26.3 0 0 1-1.04.59 13 13 0 0 0-4.7-.87C20.1 16 14 22.27 14 30s6.1 14 13.62 14S41 37.73 41 30c0-2.75-.74-5.32-2.04-7.48.11-.57.29-1.19.5-1.81.33.1.65.14.97.14.85 0 1.59-.35 2.05-1 .46-.63.64-1.48.44-2.2-.33-1.25-1.36-2.5-3.22-3.9C38.2 12.64 36.6 12 35.35 12c-.26 0-.49.02-.72.07a2.1 2.1 0 0 0-1.4 1.18Z" fill="#fff"/><defs><linearGradient id="amjnl4gw0" x1="36.68" y1="21" x2="25.77" y2="30.73" gradientUnits="userSpaceOnUse"><stop offset=".29" stop-color="#fff"/><stop offset=".78" stop-color="#fff" stop-opacity="0"/></linearGradient><linearGradient id="dmjnl4gw0" x1="25.56" y1="43.03" x2="29.9" y2="16.96" gradientUnits="userSpaceOnUse"><stop stop-color="#81FFFF"/><stop offset=".62" stop-color="#fff" stop-opacity="0"/></linearGradient><linearGradient id="emjnl4gw0" x1="15.51" y1="36.15" x2="39.49" y2="36.15" gradientUnits="userSpaceOnUse"><stop stop-color="#0002E9"/><stop offset="1" stop-color="#FF00C7"/></linearGradient><linearGradient id="fmjnl4gw0" x1="40.63" y1="30.97" x2="27" y2="43.26" gradientUnits="userSpaceOnUse"><stop offset=".29" stop-color="#fff"/><stop offset=".78" stop-color="#fff" stop-opacity="0"/></linearGradient><linearGradient id="gmjnl4gw0" x1="15.39" y1="36.15" x2="28.46" y2="36.15" gradientUnits="userSpaceOnUse"><stop stop-color="#000292"/><stop offset="1" stop-color="#7D00C7"/></linearGradient><linearGradient id="hmjnl4gw0" x1="15.53" y1="31.03" x2="39.5" y2="31.03" gradientUnits="userSpaceOnUse"><stop stop-color="#000292"/><stop offset="1" stop-color="#BE00C7"/></linearGradient><linearGradient id="imjnl4gw0" x1="39.41" y1="17.57" x2="37.58" y2="20.45" gradientUnits="userSpaceOnUse"><stop offset=".29" stop-color="#fff"/><stop offset=".78" stop-color="#fff" stop-opacity="0"/></linearGradient><linearGradient id="jmjnl4gw0" x1="27.98" y1="40.57" x2="28.71" y2="40.57" gradientUnits="userSpaceOnUse"><stop offset=".29" stop-color="#fff"/><stop offset=".78" stop-color="#fff" stop-opacity="0"/></linearGradient><linearGradient id="kmjnl4gw0" x1="32.41" y1="35.88" x2="34" y2="35.88" gradientUnits="userSpaceOnUse"><stop offset=".29" stop-color="#fff"/><stop offset=".78" stop-color="#fff" stop-opacity="0"/></linearGradient><radialGradient id="bmjnl4gw0" cx="0" cy="0" r="1" gradientUnits="userSpaceOnUse" gradientTransform="matrix(10.2813 0 0 10.5786 41.85 16.36)"><stop stop-color="#FFEAFF" stop-opacity=".6"/><stop offset=".68" stop-color="#A087C9"/><stop offset="1" stop-color="#10002F"/></radialGradient><radialGradient id="cmjnl4gw0" cx="0" cy="0" r="1" gradientUnits="userSpaceOnUse" gradientTransform="matrix(25.1545 0 0 25.8819 36.13 20.87)"><stop stop-color="#FFEAFF" stop-opacity=".6"/><stop offset=".68" stop-color="#A087C9"/><stop offset="1" stop-color="#10002F"/></radialGradient></defs></svg>