<!-- by TradingView --><svg width="56" height="56" viewBox="0 0 56 56" xmlns="http://www.w3.org/2000/svg"><path fill="url(#ape3tqdet)" d="M0 0h56v56H0z"/><path d="M38.14 20.71c-.2.18-.45.29-.71.29h-23.8c-.52 0-.81-.56-.5-.96l4.65-4.74c.2-.19.45-.3.71-.3h23.88c.52 0 .81.57.5.96l-4.73 4.75Z" fill="url(#bpe3tqdet)"/><path d="M38.14 40.72c-.2.18-.45.28-.72.28h-23.8c-.5 0-.8-.56-.5-.96l4.66-4.75c.2-.19.45-.29.71-.29h23.88c.52 0 .81.57.5.96l-4.73 4.76Z" fill="url(#cpe3tqdet)"/><path d="M38.14 25.28c-.2-.18-.45-.28-.72-.28h-23.8c-.5 0-.8.56-.5.96l4.66 4.75c.2.18.45.29.71.29h23.88c.52 0 .81-.57.5-.96l-4.73-4.76Z" fill="url(#dpe3tqdet)"/><defs><linearGradient id="ape3tqdet" x1="10.42" y1="9.71" x2="68.15" y2="76.02" gradientUnits="userSpaceOnUse"><stop stop-color="#1A1E21"/><stop offset="1" stop-color="#06060A"/></linearGradient><linearGradient id="bpe3tqdet" x1="14.06" y1="23.44" x2="41.45" y2="15.35" gradientUnits="userSpaceOnUse"><stop stop-color="#6E73E3"/><stop offset=".32" stop-color="#41B8C8"/><stop offset=".58" stop-color="#27E2B7"/><stop offset="1" stop-color="#16FC99"/></linearGradient><linearGradient id="cpe3tqdet" x1="12.39" y1="40.04" x2="43.61" y2="35.66" gradientUnits="userSpaceOnUse"><stop stop-color="#9E48FF"/><stop offset=".34" stop-color="#8D4DF9"/><stop offset=".57" stop-color="#6B7AE1"/><stop offset=".95" stop-color="#45B3CE"/></linearGradient><linearGradient id="dpe3tqdet" x1="14.18" y1="28" x2="42.42" y2="28" gradientUnits="userSpaceOnUse"><stop stop-color="#8654F3"/><stop offset=".47" stop-color="#549AD6"/><stop offset=".93" stop-color="#26D9B2"/></linearGradient></defs></svg>