<!-- by TradingView --><svg width="56" height="56" viewBox="0 0 56 56" xmlns="http://www.w3.org/2000/svg"><path fill="#E91179" d="M0 0h56v56H0z"/><path d="M33.22 21.77C33 19.36 30.66 18 28.4 18c-1.87 0-4.35 1.03-4.39 3.16-.07 1.62 1.26 2.4 2.6 2.88.58.2 1.24.38 1.96.53l2.73.61c1.57.34 2.95.79 4.15 1.34 1.2.56 2.22 1.23 3.03 2a7.71 7.71 0 0 1 1.88 2.66c.42 1 .64 2.13.65 3.38a8.6 8.6 0 0 1-1.52 5.07 9.41 9.41 0 0 1-4.32 3.24A18.17 18.17 0 0 1 28.39 44c-5.53 0-12.41-2.72-13.39-9.44l7.5-1.34c.2 3.23 2.98 4.78 5.8 4.78 2.21 0 4.66-1.05 4.7-3.45-.02-1.42-.7-2.08-2-2.6-.75-.32-1.7-.61-2.86-.87l-3.32-.77c-2.74-.62-4.9-1.61-6.49-3a7.08 7.08 0 0 1-2.35-5.63 8.27 8.27 0 0 1 1.58-5.07 10.47 10.47 0 0 1 4.41-3.4A16.08 16.08 0 0 1 28.4 12c4.27 0 9.4 2.26 11.95 7.66l-7.13 2.11Z" fill="#fff"/></svg>